name analog
datacolumns 19
datarows 27
range 0.0 0.013000000000000001
endheader
time	ground_force_vx	ground_force_vy	ground_force_vz	ground_force_px	ground_force_py	ground_force_pz	l_ground_force_vx	l_ground_force_vy	l_ground_force_vz	l_ground_force_px	l_ground_force_py	l_ground_force_pz	ground_torque_x	ground_torque_y	ground_torque_z	l_ground_torque_x	l_ground_torque_y	l_ground_torque_z
0.0	-0.0	-0.0	-0.0	9.368163108825684	33.95762634277344	-491.6348571777344	-6.303357124328613	-28.791894912719727	-229.411865234375	-0.0	-0.0	-0.0	-0.0	-0.0	-0.0	65130.2421875	-5525.13720703125	-2474.565673828125
0.0005	-0.0	-0.0	-0.0	9.27789306640625	33.60106658935547	-491.2776794433594	-6.736935138702393	-28.35531044006348	-230.78521728515625	-0.0	-0.0	-0.0	-0.0	-0.0	-0.0	64974.21875	-5782.09423828125	-2533.0966796875
0.001	-0.0	-0.0	-0.0	9.36148166656494	33.2490119934082	-491.2866821289063	-6.482166290283203	-28.96534538269043	-231.81607055664065	-0.0	-0.0	-0.0	-0.0	-0.0	-0.0	65073.8671875	-5706.8271484375	-2384.04052734375
0.0015	-0.0	-0.0	-0.0	9.279056549072266	32.987545013427734	-492.64459228515625	-6.214095592498779	-29.49728202819824	-230.4571533203125	-0.0	-0.0	-0.0	-0.0	-0.0	-0.0	65038.59765625	-5582.3076171875	-2414.336181640625
0.002	-0.0	-0.0	-0.0	9.541918754577637	33.338375091552734	-490.9058227539063	-6.304084300994873	-29.501680374145508	-231.13836669921875	-0.0	-0.0	-0.0	-0.0	-0.0	-0.0	64841.24609375	-5699.16015625	-2444.803955078125
0.0025	-0.0	-0.0	-0.0	9.3707857131958	32.713314056396484	-491.2684631347656	-6.740874767303467	-29.41340065002441	-231.1293487548828	-0.0	-0.0	-0.0	-0.0	-0.0	-0.0	65034.39453125	-5553.2890625	-2532.56005859375
0.003	-0.0	-0.0	-0.0	9.453782081604004	33.06611633300781	-491.97467041015625	-6.566964626312256	-29.673730850219727	-231.84597778320312	-0.0	-0.0	-0.0	-0.0	-0.0	-0.0	64789.60546875	-5715.02978515625	-2385.330810546875
0.0035	-0.0	-0.0	-0.0	9.457618713378906	32.803897857666016	-492.3276672363281	-6.743241786956787	-30.028156280517575	-232.53016662597656	-0.0	-0.0	-0.0	-0.0	-0.0	-0.0	65271.01171875	-5381.20458984375	-2415.61865234375
0.004	-0.0	-0.0	-0.0	9.09814167022705	32.359657287597656	-493.0128479003906	-6.657050609588623	-30.63769149780273	-234.61024475097656	-0.0	-0.0	-0.0	-0.0	-0.0	-0.0	65626.140625	-6122.466796875	-2355.558349609375
0.0045000000000000005	-0.0	-0.0	-0.0	9.190052032470703	32.613521575927734	-494.7780151367188	-6.306179523468018	-30.63994407653809	-236.3655242919922	-0.0	-0.0	-0.0	-0.0	-0.0	-0.0	65832.9765625	-5700.37158203125	-2356.156494140625
0.005	-0.0	-0.0	-0.0	9.19713020324707	32.272239685058594	-493.0447692871094	-6.661254405975342	-31.000911712646484	-236.73001098632807	-0.0	-0.0	-0.0	-0.0	-0.0	-0.0	66245.3671875	-6180.130859375	-2328.620849609375
0.0055	-0.0	-0.0	-0.0	9.718158721923828	32.354339599609375	-495.1697082519531	-6.389902114868164	-31.61509323120117	-238.7928771972656	-0.0	-0.0	-0.0	-0.0	-0.0	-0.0	66549.828125	-6219.0986328125	-2240.112060546875
0.006	-0.0	-0.0	-0.0	9.5469970703125	32.086944580078125	-495.4998168945313	-6.130761623382568	-31.966920852661133	-237.78863525390625	-0.0	-0.0	-0.0	-0.0	-0.0	-0.0	66769.71875	-5863.140625	-2237.7470703125
0.006500000000000001	-0.0	-0.0	-0.0	10.160931587219238	32.26671600341797	-492.6920166015625	-6.2083282470703125	-32.06219482421875	-240.89215087890625	-0.0	-0.0	-0.0	-0.0	-0.0	-0.0	67230.953125	-6212.8681640625	-2179.465576171875
0.007	-0.0	-0.0	-0.0	9.287192344665527	31.73042297363281	-492.320556640625	-6.30139684677124	-32.84837341308594	-240.903076171875	-0.0	-0.0	-0.0	-0.0	-0.0	-0.0	67412.8984375	-6162.646484375	-2148.14599609375
0.0075	-0.0	-0.0	-0.0	9.55182647705078	31.81955337524414	-493.7081298828125	-6.121044158935547	-33.02340316772461	-240.5771942138672	-0.0	-0.0	-0.0	-0.0	-0.0	-0.0	67422.3671875	-6207.99560546875	-2325.5390625
0.008	-0.0	-0.0	-0.0	9.285964965820312	31.73042297363281	-491.6200866699219	-6.560009479522705	-33.63838195800781	-242.9794158935547	-0.0	-0.0	-0.0	-0.0	-0.0	-0.0	67851.9765625	-6407.10205078125	-2117.310546875
0.0085	-0.0	-0.0	-0.0	9.626469612121582	31.718860626220703	-489.5335693359375	-6.300034046173096	-33.46923828125	-242.99717712402344	-0.0	-0.0	-0.0	-0.0	-0.0	-0.0	68037.1796875	-6276.32666015625	-2059.276123046875
0.009000000000000001	-0.0	-0.0	-0.0	9.37045192718506	31.639619827270508	-488.1278076171875	-6.648529052734375	-33.822452545166016	-244.39358520507807	-0.0	-0.0	-0.0	-0.0	-0.0	-0.0	67931.5390625	-6409.46435546875	-1942.5474853515625
0.0095	-0.0	-0.0	-0.0	9.015399932861328	31.03107070922852	-489.4938354492188	-6.656572341918945	-34.263938903808594	-244.4061279296875	-0.0	-0.0	-0.0	-0.0	-0.0	-0.0	68348.4765625	-6240.638671875	-2204.210693359375
0.01	-0.0	-0.0	-0.0	9.19218635559082	31.54516220092773	-488.1015930175781	-6.917770862579346	-34.44379425048828	-242.6932373046875	-0.0	-0.0	-0.0	-0.0	-0.0	-0.0	68089.375	-6026.13916015625	-2118.6982421875
0.0105	-0.0	-0.0	-0.0	8.398229598999023	31.019155502319336	-486.6960144042969	-7.182190418243408	-34.88706970214844	-244.37283325195312	-0.0	-0.0	-0.0	-0.0	-0.0	-0.0	67859.765625	-6094.12451171875	-2007.682373046875
0.011	-0.0	-0.0	-0.0	9.177785873413086	30.58261489868164	-486.3575439453125	-7.443054676055908	-35.06543731689453	-243.04356384277344	-0.0	-0.0	-0.0	-0.0	-0.0	-0.0	68057.8125	-5763.25732421875	-2239.003173828125
0.0115	-0.0	-0.0	-0.0	8.385787963867188	30.22447204589844	-488.7863464355469	-7.540416717529297	-34.96834182739258	-243.009521484375	-0.0	-0.0	-0.0	-0.0	-0.0	-0.0	67726.15625	-5590.72900390625	-2266.345703125
0.012	-0.0	-0.0	-0.0	8.474998474121094	30.658979415893555	-488.7786865234375	-7.799371242523193	-34.970027923583984	-243.3516082763672	-0.0	-0.0	-0.0	-0.0	-0.0	-0.0	67589.1015625	-5083.76513671875	-2181.704345703125
0.0125	-0.0	-0.0	-0.0	8.116236686706543	30.49793815612793	-489.1770324707031	-7.806549072265625	-34.88706970214844	-242.28958129882807	-0.0	-0.0	-0.0	-0.0	-0.0	-0.0	67067.7578125	-5022.7041015625	-2414.13623046875
0.013000000000000001	-0.0	-0.0	-0.0	8.207366943359375	30.57368469238281	-490.2369995117188	-8.165135383605957	-34.61837387084961	-241.95469665527344	-0.0	-0.0	-0.0	-0.0	-0.0	-0.0	66719.90625	-4697.240234375	-2416.1357421875
